<svg width="22" height="22" viewBox="0 0 22 22" fill="none" xmlns="http://www.w3.org/2000/svg">
<path fill-rule="evenodd" clip-rule="evenodd" d="M21.2768 11.2387C21.2768 10.4941 21.21 9.77822 21.0859 9.09094H11.1968V13.1525H16.8477C16.6043 14.465 15.8645 15.5771 14.7525 16.3216V18.9562H18.1459C20.1313 17.1282 21.2768 14.4364 21.2768 11.2387Z" fill="#4285F4"/>
<path fill-rule="evenodd" clip-rule="evenodd" d="M11.1964 21.5C14.0314 21.5 16.4082 20.5597 18.1455 18.9561L14.7521 16.3215C13.8118 16.9515 12.6091 17.3238 11.1964 17.3238C8.46159 17.3238 6.14682 15.4768 5.32113 12.9949H1.81317V15.7154C3.5409 19.147 7.09182 21.5 11.1964 21.5Z" fill="#34A853"/>
<path fill-rule="evenodd" clip-rule="evenodd" d="M5.32156 12.995C5.11156 12.365 4.99224 11.692 4.99224 10.9999C4.99224 10.3079 5.11156 9.63495 5.32156 9.00495V6.28448H1.8136C1.10246 7.70199 0.696777 9.30563 0.696777 10.9999C0.696777 12.6943 1.10246 14.2979 1.8136 15.7154L5.32156 12.995Z" fill="#FBBC05"/>
<path fill-rule="evenodd" clip-rule="evenodd" d="M11.1964 4.67615C12.738 4.67615 14.1221 5.20592 15.2102 6.24638L18.2218 3.23478C16.4034 1.54046 14.0266 0.5 11.1964 0.5C7.09182 0.5 3.5409 2.85296 1.81317 6.28456L5.32113 9.00502C6.14682 6.52319 8.46159 4.67615 11.1964 4.67615Z" fill="#EA4335"/>
</svg>
