<svg width="18" height="16" viewBox="0 0 18 16" fill="none" xmlns="http://www.w3.org/2000/svg">
<path d="M9.72083 0.496863C9.39968 -0.0565958 8.60042 -0.056598 8.27927 0.496863L6.01756 4.39462C5.85892 4.66802 5.58471 4.8546 5.27216 4.90181L1.03356 5.54199C0.321659 5.64952 0.0719426 6.54836 0.626364 7.00769L3.78394 9.62371C4.07622 9.86587 4.21366 10.2478 4.14266 10.6207L3.31668 14.9583C3.18611 15.644 3.90594 16.1768 4.52356 15.8516L8.51473 13.75C8.81851 13.5901 9.18159 13.5901 9.48537 13.75L13.4765 15.8516C14.0942 16.1768 14.814 15.644 14.6834 14.9583L13.8574 10.6207C13.7864 10.2478 13.9239 9.86587 14.2162 9.62371L17.3737 7.00769C17.9282 6.54836 17.6784 5.64952 16.9665 5.54199L12.7279 4.90181C12.4154 4.8546 12.1412 4.66802 11.9825 4.39462L9.72083 0.496863Z" fill="#299764"/>
</svg>
