<svg width="14" height="14" viewBox="0 0 14 14" fill="none" xmlns="http://www.w3.org/2000/svg">
<path d="M6.99996 0.125C5.27407 0.125 3.87496 1.52411 3.87496 3.25C3.87496 4.97589 5.27407 6.375 6.99996 6.375C8.72585 6.375 10.125 4.97589 10.125 3.25C10.125 1.52411 8.72585 0.125 6.99996 0.125Z" fill="white"/>
<path d="M3.66663 8.04167C1.94074 8.04167 0.541626 9.44078 0.541626 11.1667V12.1569C0.541626 12.7846 0.996529 13.3198 1.61602 13.4209C5.18171 14.0031 8.81821 14.0031 12.3839 13.4209C13.0034 13.3198 13.4583 12.7846 13.4583 12.1569V11.1667C13.4583 9.44078 12.0592 8.04167 10.3333 8.04167H10.0492C9.89549 8.04167 9.74271 8.06598 9.59657 8.1137L8.8753 8.34921C7.65673 8.74712 6.34319 8.74712 5.12462 8.34921L4.40335 8.1137C4.2572 8.06598 4.10443 8.04167 3.95068 8.04167H3.66663Z" fill="white"/>
</svg>
