<svg width="14" height="18" viewBox="0 0 14 18" fill="none" xmlns="http://www.w3.org/2000/svg">
<path fill-rule="evenodd" clip-rule="evenodd" d="M8.87496 1.08333C8.87496 0.968274 8.78169 0.875 8.66663 0.875H2.83329C1.56764 0.875 0.541626 1.90102 0.541626 3.16667V14.8333C0.541626 16.099 1.56764 17.125 2.83329 17.125H11.1666C12.4323 17.125 13.4583 16.099 13.4583 14.8333V6.62255C13.4583 6.50749 13.365 6.41422 13.25 6.41422H9.49996C9.15478 6.41422 8.87496 6.13439 8.87496 5.78922V1.08333ZM6.99996 7.33333C6.07948 7.33333 5.33329 8.07953 5.33329 9C5.33329 9.92047 6.07948 10.6667 6.99996 10.6667C7.92043 10.6667 8.66663 9.92047 8.66663 9C8.66663 8.07953 7.92043 7.33333 6.99996 7.33333ZM3.66663 14.4167C3.66663 13.036 4.78591 11.9167 6.16663 11.9167H7.83329C9.21401 11.9167 10.3333 13.036 10.3333 14.4167C10.3333 14.8769 9.9602 15.25 9.49996 15.25H4.49996C4.03972 15.25 3.66663 14.8769 3.66663 14.4167Z" fill="white"/>
<path d="M10.125 1.35345C10.125 1.1997 10.2855 1.10208 10.4051 1.19866C10.5059 1.28 10.5965 1.3753 10.6737 1.48296L13.1847 4.98121C13.2419 5.06085 13.1799 5.16422 13.0819 5.16422H10.3333C10.2182 5.16422 10.125 5.07094 10.125 4.95588V1.35345Z" fill="white"/>
</svg>
